<?xml version="1.0" encoding="iso-8859-1"?>
<!-- Generator: Adobe Illustrator 19.0.0, SVG Export Plug-In . SVG Version: 6.00 Build 0)  -->
<svg xmlns="http://www.w3.org/2000/svg" xmlns:xlink="http://www.w3.org/1999/xlink" version="1.1" id="Layer_1" x="0px" y="0px" viewBox="0 0 426.667 426.667" style="enable-background:new 0 0 426.667 426.667;" xml:space="preserve" width="512px" height="512px">
<g>
	<g>
		<path d="M320,106.667c-51.669,0-82.283,31.851-106.667,67.328c-24.384-35.477-54.997-67.328-106.667-67.328    C49.835,106.667,0,156.501,0,213.333S49.835,320,106.667,320c51.669,0,82.283-31.851,106.667-67.328    C237.717,288.149,268.331,320,320,320c67.797,0,106.667-38.869,106.667-106.667C426.667,156.501,376.832,106.667,320,106.667z     M106.667,277.333c-29.589,0-64-27.968-64-64s34.411-64,64-64c35.499,0,55.744,23.915,81.408,64    C162.411,253.419,142.165,277.333,106.667,277.333z M320,277.333c-35.499,0-55.744-23.915-81.408-64    c25.664-40.085,45.909-64,81.408-64c29.589,0,64,27.968,64,64C384,257.579,364.245,277.333,320,277.333z" fill="#FFDA44"/>
	</g>
</g>
<g>
</g>
<g>
</g>
<g>
</g>
<g>
</g>
<g>
</g>
<g>
</g>
<g>
</g>
<g>
</g>
<g>
</g>
<g>
</g>
<g>
</g>
<g>
</g>
<g>
</g>
<g>
</g>
<g>
</g>
</svg>
