<?xml version="1.0" encoding="iso-8859-1"?>
<!-- Generator: Adobe Illustrator 19.0.0, SVG Export Plug-In . SVG Version: 6.00 Build 0)  -->
<svg xmlns="http://www.w3.org/2000/svg" xmlns:xlink="http://www.w3.org/1999/xlink" version="1.1" id="Layer_1" x="0px" y="0px" viewBox="0 0 499.499 499.499" style="enable-background:new 0 0 499.499 499.499;" xml:space="preserve" width="512px" height="512px">
<g>
	<g>
		<g>
			<path d="M158.165,170.667l-48.917-48.917h268.501v128h42.667v-128c0-23.531-19.115-42.667-42.667-42.667H109.248l48.917-48.917     L128,0L27.584,100.416L128,200.832L158.165,170.667z" fill="#FFDA44"/>
			<path d="M371.499,298.667l-30.165,30.165l48.917,48.917H121.749v-128H79.083v128c0,23.552,19.136,42.667,42.667,42.667h268.501     l-48.917,48.917l30.165,30.165l100.416-100.416L371.499,298.667z" fill="#FFDA44"/>
			<path d="M271.083,335.083V185.749c0-8.619-5.205-16.405-13.163-19.712c-8-3.307-17.152-1.472-23.253,4.629l-57.749,57.749     l30.165,30.165l21.333-21.333v97.835H271.083z" fill="#FFDA44"/>
		</g>
	</g>
</g>
<g>
</g>
<g>
</g>
<g>
</g>
<g>
</g>
<g>
</g>
<g>
</g>
<g>
</g>
<g>
</g>
<g>
</g>
<g>
</g>
<g>
</g>
<g>
</g>
<g>
</g>
<g>
</g>
<g>
</g>
</svg>
