<?xml version="1.0" encoding="iso-8859-1"?>
<!-- Generator: Adobe Illustrator 19.0.0, SVG Export Plug-In . SVG Version: 6.00 Build 0)  -->
<svg xmlns="http://www.w3.org/2000/svg" xmlns:xlink="http://www.w3.org/1999/xlink" version="1.1" id="Layer_1" x="0px" y="0px" viewBox="0 0 426.667 426.667" style="enable-background:new 0 0 426.667 426.667;" xml:space="preserve" width="512px" height="512px">
<g>
	<g>
		<g>
			<path d="M298.667,85.333h-45.845L312,37.995L285.333,4.672L178.667,90.005c-7.083,5.653-9.792,15.168-6.784,23.723     C174.869,122.283,182.933,128,192,128h106.667c47.04,0,85.333,38.293,85.333,85.333s-38.293,85.333-85.333,85.333v42.667     c70.592,0,128-57.408,128-128S369.259,85.333,298.667,85.333z" fill="#FFDA44"/>
			<path d="M234.667,298.667H128c-47.04,0-85.333-38.293-85.333-85.333S80.96,128,128,128V85.333c-70.592,0-128,57.408-128,128     s57.408,128,128,128h45.845l-59.179,47.339l26.667,33.323L248,336.661c7.083-5.653,9.792-15.168,6.784-23.723     C251.797,304.384,243.733,298.667,234.667,298.667z" fill="#FFDA44"/>
		</g>
	</g>
</g>
<g>
</g>
<g>
</g>
<g>
</g>
<g>
</g>
<g>
</g>
<g>
</g>
<g>
</g>
<g>
</g>
<g>
</g>
<g>
</g>
<g>
</g>
<g>
</g>
<g>
</g>
<g>
</g>
<g>
</g>
</svg>
